<svg width="22" height="24" viewBox="0 0 22 24" fill="none" xmlns="http://www.w3.org/2000/svg">
<mask id="path-1-inside-1_1125_1874" fill="white">
<path d="M10.8336 11.5609C12.5787 11.5609 14.0895 10.9913 15.3244 9.86737C16.5588 8.74365 17.1849 7.36871 17.1849 5.78027C17.1849 4.19238 16.559 2.81726 15.3242 1.69318C14.0893 0.569641 12.5785 0 10.8336 0C9.08837 0 7.5777 0.569641 6.34305 1.69336C5.1084 2.81708 4.48232 4.1922 4.48232 5.78027C4.48232 7.36871 5.1084 8.74384 6.34305 9.86755C7.5781 10.9911 9.08898 11.5609 10.8336 11.5609ZM7.43587 2.68781C8.38323 1.82556 9.49456 1.40643 10.8336 1.40643C12.1725 1.40643 13.284 1.82556 14.2316 2.68781C15.1789 3.55023 15.6396 4.56189 15.6396 5.78027C15.6396 6.99902 15.1789 8.0105 14.2316 8.87292C13.284 9.73535 12.1725 10.1545 10.8336 10.1545C9.49496 10.1545 8.38363 9.73517 7.43587 8.87292C6.4883 8.01068 6.0276 6.99902 6.0276 5.78027C6.0276 4.56189 6.4883 3.55023 7.43587 2.68781Z"/>
<path d="M21.9467 18.4548C21.9111 17.9872 21.8391 17.4771 21.733 16.9384C21.626 16.3956 21.4882 15.8826 21.3232 15.4136C21.1526 14.929 20.9211 14.4503 20.6344 13.9916C20.3372 13.5156 19.988 13.101 19.5961 12.7599C19.1863 12.403 18.6845 12.1161 18.1043 11.9068C17.5261 11.6986 16.8854 11.5931 16.1999 11.5931C15.9308 11.5931 15.6704 11.6937 15.1677 11.9916C14.8583 12.1752 14.4963 12.3876 14.0924 12.6226C13.7469 12.8229 13.279 13.0106 12.701 13.1805C12.1371 13.3466 11.5645 13.4308 10.9992 13.4308C10.4343 13.4308 9.86171 13.3466 9.2974 13.1805C8.72001 13.0107 8.25186 12.8231 7.90704 12.6227C7.50689 12.39 7.14476 12.1776 6.83071 11.9914C6.32836 11.6935 6.06804 11.593 5.79885 11.593C5.11323 11.593 4.47267 11.6986 3.89467 11.907C3.31487 12.1159 2.81292 12.4028 2.40271 12.7601C2.01081 13.1014 1.66156 13.5157 1.36461 13.9916C1.07833 14.4503 0.846572 14.9288 0.67597 15.4138C0.511202 15.8828 0.373393 16.3956 0.266364 16.9384C0.16014 17.4763 0.0883187 17.9866 0.0527096 18.4554C0.017704 18.9137 0 19.3907 0 19.8726C0 21.1254 0.43757 22.1396 1.30044 22.8876C2.15264 23.6257 3.28006 24 4.65152 24H17.3485C18.7195 24 19.847 23.6257 20.6994 22.8876C21.5624 22.1402 22 21.1256 22 19.8724C21.9998 19.3889 21.9819 18.9119 21.9467 18.4548ZM19.6339 21.8687C19.0708 22.3564 18.3232 22.5936 17.3483 22.5936H4.65152C3.67639 22.5936 2.9288 22.3564 2.36589 21.8688C1.81365 21.3904 1.54527 20.7372 1.54527 19.8726C1.54527 19.4229 1.56157 18.9789 1.59416 18.5526C1.62595 18.1344 1.69093 17.675 1.7873 17.1868C1.88246 16.7047 2.00357 16.2523 2.14761 15.8427C2.28582 15.4499 2.47433 15.061 2.7081 14.6863C2.93121 14.3293 3.18792 14.0229 3.47119 13.7761C3.73614 13.5452 4.0701 13.3563 4.46361 13.2145C4.82755 13.0834 5.23655 13.0117 5.68056 13.0009C5.73468 13.027 5.83104 13.077 5.98716 13.1697C6.30483 13.3581 6.67098 13.5731 7.07575 13.8083C7.53203 14.0731 8.11989 14.3123 8.82221 14.5186C9.54023 14.7299 10.2725 14.8372 10.9994 14.8372C11.7263 14.8372 12.4588 14.7299 13.1764 14.5188C13.8793 14.3121 14.467 14.0731 14.9238 13.808C15.3381 13.567 15.694 13.3583 16.0116 13.1697C16.1677 13.0772 16.2641 13.027 16.3182 13.0009C16.7624 13.0117 17.1714 13.0834 17.5356 13.2145C17.9289 13.3563 18.2629 13.5454 18.5278 13.7761C18.8111 14.0228 19.0678 14.3291 19.2909 14.6865C19.5249 15.061 19.7136 15.4501 19.8516 15.8425C19.9958 16.2526 20.1171 16.7049 20.2121 17.1866C20.3083 17.6757 20.3734 18.1353 20.4052 18.5528C20.438 18.9774 20.4545 19.4216 20.4547 19.8726C20.4545 20.7374 20.1861 21.3904 19.6339 21.8687Z"/>
</mask>
<path d="M10.8336 11.5609C12.5787 11.5609 14.0895 10.9913 15.3244 9.86737C16.5588 8.74365 17.1849 7.36871 17.1849 5.78027C17.1849 4.19238 16.559 2.81726 15.3242 1.69318C14.0893 0.569641 12.5785 0 10.8336 0C9.08837 0 7.5777 0.569641 6.34305 1.69336C5.1084 2.81708 4.48232 4.1922 4.48232 5.78027C4.48232 7.36871 5.1084 8.74384 6.34305 9.86755C7.5781 10.9911 9.08898 11.5609 10.8336 11.5609ZM7.43587 2.68781C8.38323 1.82556 9.49456 1.40643 10.8336 1.40643C12.1725 1.40643 13.284 1.82556 14.2316 2.68781C15.1789 3.55023 15.6396 4.56189 15.6396 5.78027C15.6396 6.99902 15.1789 8.0105 14.2316 8.87292C13.284 9.73535 12.1725 10.1545 10.8336 10.1545C9.49496 10.1545 8.38363 9.73517 7.43587 8.87292C6.4883 8.01068 6.0276 6.99902 6.0276 5.78027C6.0276 4.56189 6.4883 3.55023 7.43587 2.68781Z" fill="#272727"/>
<path d="M21.9467 18.4548C21.9111 17.9872 21.8391 17.4771 21.733 16.9384C21.626 16.3956 21.4882 15.8826 21.3232 15.4136C21.1526 14.929 20.9211 14.4503 20.6344 13.9916C20.3372 13.5156 19.988 13.101 19.5961 12.7599C19.1863 12.403 18.6845 12.1161 18.1043 11.9068C17.5261 11.6986 16.8854 11.5931 16.1999 11.5931C15.9308 11.5931 15.6704 11.6937 15.1677 11.9916C14.8583 12.1752 14.4963 12.3876 14.0924 12.6226C13.7469 12.8229 13.279 13.0106 12.701 13.1805C12.1371 13.3466 11.5645 13.4308 10.9992 13.4308C10.4343 13.4308 9.86171 13.3466 9.2974 13.1805C8.72001 13.0107 8.25186 12.8231 7.90704 12.6227C7.50689 12.39 7.14476 12.1776 6.83071 11.9914C6.32836 11.6935 6.06804 11.593 5.79885 11.593C5.11323 11.593 4.47267 11.6986 3.89467 11.907C3.31487 12.1159 2.81292 12.4028 2.40271 12.7601C2.01081 13.1014 1.66156 13.5157 1.36461 13.9916C1.07833 14.4503 0.846572 14.9288 0.67597 15.4138C0.511202 15.8828 0.373393 16.3956 0.266364 16.9384C0.16014 17.4763 0.0883187 17.9866 0.0527096 18.4554C0.017704 18.9137 0 19.3907 0 19.8726C0 21.1254 0.43757 22.1396 1.30044 22.8876C2.15264 23.6257 3.28006 24 4.65152 24H17.3485C18.7195 24 19.847 23.6257 20.6994 22.8876C21.5624 22.1402 22 21.1256 22 19.8724C21.9998 19.3889 21.9819 18.9119 21.9467 18.4548ZM19.6339 21.8687C19.0708 22.3564 18.3232 22.5936 17.3483 22.5936H4.65152C3.67639 22.5936 2.9288 22.3564 2.36589 21.8688C1.81365 21.3904 1.54527 20.7372 1.54527 19.8726C1.54527 19.4229 1.56157 18.9789 1.59416 18.5526C1.62595 18.1344 1.69093 17.675 1.7873 17.1868C1.88246 16.7047 2.00357 16.2523 2.14761 15.8427C2.28582 15.4499 2.47433 15.061 2.7081 14.6863C2.93121 14.3293 3.18792 14.0229 3.47119 13.7761C3.73614 13.5452 4.0701 13.3563 4.46361 13.2145C4.82755 13.0834 5.23655 13.0117 5.68056 13.0009C5.73468 13.027 5.83104 13.077 5.98716 13.1697C6.30483 13.3581 6.67098 13.5731 7.07575 13.8083C7.53203 14.0731 8.11989 14.3123 8.82221 14.5186C9.54023 14.7299 10.2725 14.8372 10.9994 14.8372C11.7263 14.8372 12.4588 14.7299 13.1764 14.5188C13.8793 14.3121 14.467 14.0731 14.9238 13.808C15.3381 13.567 15.694 13.3583 16.0116 13.1697C16.1677 13.0772 16.2641 13.027 16.3182 13.0009C16.7624 13.0117 17.1714 13.0834 17.5356 13.2145C17.9289 13.3563 18.2629 13.5454 18.5278 13.7761C18.8111 14.0228 19.0678 14.3291 19.2909 14.6865C19.5249 15.061 19.7136 15.4501 19.8516 15.8425C19.9958 16.2526 20.1171 16.7049 20.2121 17.1866C20.3083 17.6757 20.3734 18.1353 20.4052 18.5528C20.438 18.9774 20.4545 19.4216 20.4547 19.8726C20.4545 20.7374 20.1861 21.3904 19.6339 21.8687Z" fill="#272727"/>
<path d="M10.8336 11.5609C12.5787 11.5609 14.0895 10.9913 15.3244 9.86737C16.5588 8.74365 17.1849 7.36871 17.1849 5.78027C17.1849 4.19238 16.559 2.81726 15.3242 1.69318C14.0893 0.569641 12.5785 0 10.8336 0C9.08837 0 7.5777 0.569641 6.34305 1.69336C5.1084 2.81708 4.48232 4.1922 4.48232 5.78027C4.48232 7.36871 5.1084 8.74384 6.34305 9.86755C7.5781 10.9911 9.08898 11.5609 10.8336 11.5609ZM7.43587 2.68781C8.38323 1.82556 9.49456 1.40643 10.8336 1.40643C12.1725 1.40643 13.284 1.82556 14.2316 2.68781C15.1789 3.55023 15.6396 4.56189 15.6396 5.78027C15.6396 6.99902 15.1789 8.0105 14.2316 8.87292C13.284 9.73535 12.1725 10.1545 10.8336 10.1545C9.49496 10.1545 8.38363 9.73517 7.43587 8.87292C6.4883 8.01068 6.0276 6.99902 6.0276 5.78027C6.0276 4.56189 6.4883 3.55023 7.43587 2.68781Z" stroke="black" stroke-width="2" mask="url(#path-1-inside-1_1125_1874)"/>
<path d="M21.9467 18.4548C21.9111 17.9872 21.8391 17.4771 21.733 16.9384C21.626 16.3956 21.4882 15.8826 21.3232 15.4136C21.1526 14.929 20.9211 14.4503 20.6344 13.9916C20.3372 13.5156 19.988 13.101 19.5961 12.7599C19.1863 12.403 18.6845 12.1161 18.1043 11.9068C17.5261 11.6986 16.8854 11.5931 16.1999 11.5931C15.9308 11.5931 15.6704 11.6937 15.1677 11.9916C14.8583 12.1752 14.4963 12.3876 14.0924 12.6226C13.7469 12.8229 13.279 13.0106 12.701 13.1805C12.1371 13.3466 11.5645 13.4308 10.9992 13.4308C10.4343 13.4308 9.86171 13.3466 9.2974 13.1805C8.72001 13.0107 8.25186 12.8231 7.90704 12.6227C7.50689 12.39 7.14476 12.1776 6.83071 11.9914C6.32836 11.6935 6.06804 11.593 5.79885 11.593C5.11323 11.593 4.47267 11.6986 3.89467 11.907C3.31487 12.1159 2.81292 12.4028 2.40271 12.7601C2.01081 13.1014 1.66156 13.5157 1.36461 13.9916C1.07833 14.4503 0.846572 14.9288 0.67597 15.4138C0.511202 15.8828 0.373393 16.3956 0.266364 16.9384C0.16014 17.4763 0.0883187 17.9866 0.0527096 18.4554C0.017704 18.9137 0 19.3907 0 19.8726C0 21.1254 0.43757 22.1396 1.30044 22.8876C2.15264 23.6257 3.28006 24 4.65152 24H17.3485C18.7195 24 19.847 23.6257 20.6994 22.8876C21.5624 22.1402 22 21.1256 22 19.8724C21.9998 19.3889 21.9819 18.9119 21.9467 18.4548ZM19.6339 21.8687C19.0708 22.3564 18.3232 22.5936 17.3483 22.5936H4.65152C3.67639 22.5936 2.9288 22.3564 2.36589 21.8688C1.81365 21.3904 1.54527 20.7372 1.54527 19.8726C1.54527 19.4229 1.56157 18.9789 1.59416 18.5526C1.62595 18.1344 1.69093 17.675 1.7873 17.1868C1.88246 16.7047 2.00357 16.2523 2.14761 15.8427C2.28582 15.4499 2.47433 15.061 2.7081 14.6863C2.93121 14.3293 3.18792 14.0229 3.47119 13.7761C3.73614 13.5452 4.0701 13.3563 4.46361 13.2145C4.82755 13.0834 5.23655 13.0117 5.68056 13.0009C5.73468 13.027 5.83104 13.077 5.98716 13.1697C6.30483 13.3581 6.67098 13.5731 7.07575 13.8083C7.53203 14.0731 8.11989 14.3123 8.82221 14.5186C9.54023 14.7299 10.2725 14.8372 10.9994 14.8372C11.7263 14.8372 12.4588 14.7299 13.1764 14.5188C13.8793 14.3121 14.467 14.0731 14.9238 13.808C15.3381 13.567 15.694 13.3583 16.0116 13.1697C16.1677 13.0772 16.2641 13.027 16.3182 13.0009C16.7624 13.0117 17.1714 13.0834 17.5356 13.2145C17.9289 13.3563 18.2629 13.5454 18.5278 13.7761C18.8111 14.0228 19.0678 14.3291 19.2909 14.6865C19.5249 15.061 19.7136 15.4501 19.8516 15.8425C19.9958 16.2526 20.1171 16.7049 20.2121 17.1866C20.3083 17.6757 20.3734 18.1353 20.4052 18.5528C20.438 18.9774 20.4545 19.4216 20.4547 19.8726C20.4545 20.7374 20.1861 21.3904 19.6339 21.8687Z" stroke="black" stroke-width="2" mask="url(#path-1-inside-1_1125_1874)"/>
</svg>
